<svg width="624" height="242" viewBox="0 0 624 242" fill="none" xmlns="http://www.w3.org/2000/svg">
<g clip-path="url(#clip0_361_0)">
<path d="M261.133 166.347C260.601 167.024 260.069 167.556 259.538 167.942C259.054 168.329 258.329 168.522 257.363 168.522C256.444 168.522 255.55 168.257 254.68 167.725C253.81 167.145 252.771 166.517 251.563 165.84C250.354 165.115 248.904 164.487 247.213 163.955C245.569 163.375 243.515 163.085 241.05 163.085C237.908 163.085 235.153 163.665 232.785 164.825C230.417 165.937 228.435 167.556 226.84 169.682C225.293 171.809 224.133 174.395 223.36 177.44C222.587 180.437 222.2 183.844 222.2 187.662C222.2 191.626 222.611 195.154 223.433 198.247C224.303 201.341 225.535 203.951 227.13 206.077C228.725 208.156 230.658 209.751 232.93 210.862C235.202 211.926 237.763 212.457 240.615 212.457C243.467 212.457 245.763 212.119 247.503 211.442C249.291 210.717 250.789 209.944 251.998 209.122C253.206 208.252 254.245 207.479 255.115 206.802C256.033 206.077 257.048 205.715 258.16 205.715C259.61 205.715 260.698 206.271 261.423 207.382L266.57 213.907C264.588 216.227 262.438 218.185 260.118 219.78C257.798 221.327 255.381 222.583 252.868 223.55C250.403 224.468 247.841 225.121 245.183 225.508C242.573 225.894 239.963 226.088 237.353 226.088C232.761 226.088 228.435 225.242 224.375 223.55C220.315 221.81 216.763 219.297 213.718 216.01C210.673 212.723 208.256 208.712 206.468 203.975C204.728 199.19 203.858 193.752 203.858 187.662C203.858 182.201 204.631 177.15 206.178 172.51C207.773 167.822 210.093 163.786 213.138 160.402C216.183 156.971 219.953 154.288 224.448 152.355C228.943 150.422 234.114 149.455 239.962 149.455C245.521 149.455 250.378 150.349 254.535 152.138C258.74 153.926 262.51 156.487 265.845 159.822L261.133 166.347ZM317.091 193.245C311.92 193.487 307.57 193.946 304.041 194.622C300.513 195.251 297.685 196.072 295.559 197.087C293.432 198.102 291.91 199.287 290.991 200.64C290.073 201.993 289.614 203.467 289.614 205.062C289.614 208.204 290.532 210.452 292.369 211.805C294.254 213.158 296.695 213.835 299.691 213.835C303.365 213.835 306.53 213.182 309.189 211.877C311.895 210.524 314.53 208.494 317.091 205.787V193.245ZM276.056 160.982C284.611 153.152 294.906 149.237 306.941 149.237C311.291 149.237 315.182 149.962 318.614 151.412C322.045 152.814 324.945 154.796 327.314 157.357C329.682 159.871 331.47 162.892 332.679 166.42C333.935 169.948 334.564 173.815 334.564 178.02V225H326.444C324.752 225 323.447 224.758 322.529 224.275C321.61 223.743 320.885 222.704 320.354 221.157L318.759 215.792C316.874 217.484 315.037 218.982 313.249 220.287C311.46 221.544 309.6 222.607 307.666 223.477C305.733 224.347 303.655 225 301.431 225.435C299.256 225.918 296.84 226.16 294.181 226.16C291.04 226.16 288.14 225.749 285.481 224.927C282.823 224.057 280.527 222.777 278.594 221.085C276.66 219.393 275.162 217.291 274.099 214.777C273.035 212.264 272.504 209.34 272.504 206.005C272.504 204.12 272.818 202.259 273.446 200.422C274.075 198.537 275.09 196.749 276.491 195.057C277.941 193.366 279.802 191.771 282.074 190.272C284.345 188.774 287.125 187.469 290.411 186.357C293.746 185.246 297.613 184.352 302.011 183.675C306.41 182.95 311.436 182.515 317.091 182.37V178.02C317.091 173.042 316.028 169.368 313.901 167C311.775 164.583 308.705 163.375 304.694 163.375C301.794 163.375 299.377 163.713 297.444 164.39C295.559 165.067 293.891 165.84 292.441 166.71C290.991 167.532 289.662 168.281 288.454 168.957C287.294 169.634 285.989 169.972 284.539 169.972C283.282 169.972 282.219 169.658 281.349 169.03C280.479 168.353 279.778 167.58 279.246 166.71L276.056 160.982ZM368.321 163.52C370.641 159.073 373.396 155.593 376.586 153.08C379.776 150.518 383.546 149.237 387.896 149.237C391.328 149.237 394.083 149.987 396.161 151.485L395.001 164.897C394.76 165.767 394.397 166.396 393.914 166.782C393.479 167.121 392.875 167.29 392.101 167.29C391.376 167.29 390.289 167.169 388.839 166.927C387.437 166.686 386.06 166.565 384.706 166.565C382.725 166.565 380.961 166.855 379.414 167.435C377.867 168.015 376.466 168.861 375.209 169.972C374.001 171.036 372.913 172.341 371.946 173.887C371.028 175.434 370.158 177.198 369.336 179.18V225H351.429V150.615H361.941C363.778 150.615 365.059 150.953 365.784 151.63C366.509 152.258 366.992 153.418 367.234 155.11L368.321 163.52ZM451.319 179.252C451.319 176.932 450.981 174.757 450.304 172.727C449.676 170.649 448.709 168.837 447.404 167.29C446.099 165.743 444.432 164.535 442.402 163.665C440.42 162.747 438.1 162.287 435.442 162.287C430.27 162.287 426.186 163.762 423.189 166.71C420.241 169.658 418.356 173.839 417.534 179.252H451.319ZM417.172 190.055C417.462 193.873 418.138 197.184 419.202 199.987C420.265 202.742 421.667 205.038 423.407 206.875C425.147 208.663 427.201 210.017 429.569 210.935C431.986 211.805 434.644 212.24 437.544 212.24C440.444 212.24 442.933 211.902 445.012 211.225C447.138 210.548 448.975 209.799 450.522 208.977C452.117 208.156 453.494 207.407 454.654 206.73C455.863 206.053 457.023 205.715 458.134 205.715C459.633 205.715 460.744 206.271 461.469 207.382L466.617 213.907C464.635 216.227 462.412 218.185 459.947 219.78C457.482 221.327 454.896 222.583 452.189 223.55C449.531 224.468 446.8 225.121 443.997 225.508C441.242 225.894 438.559 226.088 435.949 226.088C430.778 226.088 425.968 225.242 421.522 223.55C417.075 221.81 413.208 219.272 409.922 215.938C406.635 212.554 404.049 208.397 402.164 203.467C400.279 198.489 399.337 192.737 399.337 186.212C399.337 181.137 400.158 176.377 401.802 171.93C403.445 167.435 405.789 163.544 408.834 160.257C411.928 156.922 415.673 154.288 420.072 152.355C424.518 150.422 429.521 149.455 435.079 149.455C439.768 149.455 444.093 150.204 448.057 151.702C452.02 153.201 455.428 155.4 458.279 158.3C461.131 161.152 463.354 164.68 464.949 168.885C466.593 173.042 467.414 177.802 467.414 183.167C467.414 185.874 467.124 187.711 466.544 188.677C465.964 189.596 464.853 190.055 463.209 190.055H417.172ZM528.775 179.252C528.775 176.932 528.437 174.757 527.76 172.727C527.132 170.649 526.165 168.837 524.86 167.29C523.555 165.743 521.888 164.535 519.858 163.665C517.876 162.747 515.556 162.287 512.898 162.287C507.726 162.287 503.642 163.762 500.645 166.71C497.697 169.658 495.812 173.839 494.99 179.252H528.775ZM494.628 190.055C494.918 193.873 495.594 197.184 496.658 199.987C497.721 202.742 499.123 205.038 500.863 206.875C502.603 208.663 504.657 210.017 507.025 210.935C509.442 211.805 512.1 212.24 515 212.24C517.9 212.24 520.389 211.902 522.468 211.225C524.594 210.548 526.431 209.799 527.978 208.977C529.573 208.156 530.95 207.407 532.11 206.73C533.319 206.053 534.479 205.715 535.59 205.715C537.089 205.715 538.2 206.271 538.925 207.382L544.073 213.907C542.091 216.227 539.868 218.185 537.403 219.78C534.938 221.327 532.352 222.583 529.645 223.55C526.987 224.468 524.256 225.121 521.453 225.508C518.698 225.894 516.015 226.088 513.405 226.088C508.234 226.088 503.424 225.242 498.978 223.55C494.531 221.81 490.664 219.272 487.378 215.938C484.091 212.554 481.505 208.397 479.62 203.467C477.735 198.489 476.793 192.737 476.793 186.212C476.793 181.137 477.614 176.377 479.258 171.93C480.901 167.435 483.245 163.544 486.29 160.257C489.384 156.922 493.129 154.288 497.528 152.355C501.974 150.422 506.977 149.455 512.535 149.455C517.224 149.455 521.549 150.204 525.513 151.702C529.476 153.201 532.884 155.4 535.735 158.3C538.587 161.152 540.81 164.68 542.405 168.885C544.049 173.042 544.87 177.802 544.87 183.167C544.87 185.874 544.58 187.711 544 188.677C543.42 189.596 542.309 190.055 540.665 190.055H494.628ZM575.201 163.52C577.521 159.073 580.276 155.593 583.466 153.08C586.656 150.518 590.426 149.237 594.776 149.237C598.208 149.237 600.963 149.987 603.041 151.485L601.881 164.897C601.64 165.767 601.277 166.396 600.794 166.782C600.359 167.121 599.755 167.29 598.981 167.29C598.256 167.29 597.169 167.169 595.719 166.927C594.317 166.686 592.94 166.565 591.586 166.565C589.605 166.565 587.841 166.855 586.294 167.435C584.747 168.015 583.346 168.861 582.089 169.972C580.881 171.036 579.793 172.341 578.826 173.887C577.908 175.434 577.038 177.198 576.216 179.18V225H558.309V150.615H568.821C570.658 150.615 571.939 150.953 572.664 151.63C573.389 152.258 573.872 153.418 574.114 155.11L575.201 163.52Z" fill="#832DBA"/>
<path d="M261.133 166.347L261.919 166.965L261.931 166.949L261.943 166.933L261.133 166.347ZM259.538 167.942L258.949 167.134L258.931 167.147L258.913 167.162L259.538 167.942ZM254.68 167.725L254.125 168.557L254.142 168.568L254.159 168.578L254.68 167.725ZM251.562 165.84L251.048 166.697L251.061 166.705L251.074 166.713L251.562 165.84ZM247.213 163.955L246.88 164.898L246.896 164.904L246.913 164.909L247.213 163.955ZM232.785 164.825L233.21 165.73L233.217 165.727L233.225 165.723L232.785 164.825ZM226.84 169.683L226.04 169.082L226.036 169.088L226.031 169.094L226.84 169.683ZM223.36 177.44L224.328 177.69L224.329 177.686L223.36 177.44ZM223.433 198.247L222.466 198.504L222.468 198.511L222.47 198.518L223.433 198.247ZM227.13 206.077L226.33 206.678L226.337 206.686L227.13 206.077ZM232.93 210.863L232.49 211.761L232.498 211.765L232.506 211.768L232.93 210.863ZM247.503 211.443L247.865 212.375L247.872 212.372L247.878 212.369L247.503 211.443ZM251.998 209.122L252.56 209.949L252.571 209.942L252.582 209.934L251.998 209.122ZM255.115 206.802L255.729 207.592L255.735 207.587L255.115 206.802ZM261.423 207.382L260.585 207.929L260.61 207.966L260.637 208.002L261.423 207.382ZM266.57 213.908L267.33 214.557L267.864 213.933L267.355 213.288L266.57 213.908ZM260.118 219.78L260.672 220.612L260.678 220.608L260.684 220.604L260.118 219.78ZM252.868 223.55L253.217 224.487L253.226 224.483L252.868 223.55ZM245.183 225.508L245.039 224.518L245.036 224.518L245.183 225.508ZM224.375 223.55L223.981 224.469L223.99 224.473L224.375 223.55ZM213.718 216.01L214.451 215.33L213.718 216.01ZM206.468 203.975L205.528 204.317L205.532 204.328L206.468 203.975ZM206.178 172.51L205.231 172.188L205.229 172.194L206.178 172.51ZM213.138 160.402L213.881 161.071L213.885 161.066L213.138 160.402ZM224.448 152.355L224.052 151.436L224.448 152.355ZM254.535 152.137L254.14 153.056L254.144 153.058L254.535 152.137ZM265.845 159.822L266.656 160.408L267.154 159.718L266.552 159.115L265.845 159.822ZM260.346 165.73C259.855 166.355 259.388 166.815 258.949 167.134L260.126 168.751C260.751 168.297 261.347 167.693 261.919 166.965L260.346 165.73ZM258.913 167.162C258.682 167.346 258.222 167.522 257.363 167.522V169.522C258.436 169.522 259.426 169.312 260.162 168.723L258.913 167.162ZM257.363 167.522C256.648 167.522 255.932 167.318 255.201 166.872L254.159 168.578C255.168 169.195 256.24 169.522 257.363 169.522V167.522ZM255.235 166.893C254.338 166.295 253.275 165.653 252.051 164.967L251.074 166.713C252.266 167.38 253.282 167.995 254.125 168.557L255.235 166.893ZM252.077 164.983C250.786 164.208 249.261 163.551 247.512 163.001L246.913 164.909C248.548 165.423 249.922 166.022 251.048 166.697L252.077 164.983ZM247.545 163.012C245.761 162.382 243.585 162.085 241.05 162.085V164.085C243.445 164.085 245.378 164.368 246.88 164.898L247.545 163.012ZM241.05 162.085C237.785 162.085 234.874 162.688 232.345 163.927L233.225 165.723C235.432 164.642 238.032 164.085 241.05 164.085V162.085ZM232.36 163.92C229.841 165.102 227.732 166.827 226.04 169.082L227.64 170.283C229.138 168.285 230.992 166.771 233.21 165.73L232.36 163.92ZM226.031 169.094C224.397 171.342 223.189 174.049 222.391 177.194L224.329 177.686C225.077 174.741 226.19 172.277 227.649 170.271L226.031 169.094ZM222.392 177.19C221.593 180.285 221.2 183.779 221.2 187.662H223.2C223.2 183.91 223.58 180.589 224.328 177.69L222.392 177.19ZM221.2 187.662C221.2 191.693 221.618 195.31 222.466 198.504L224.399 197.991C223.604 194.998 223.2 191.559 223.2 187.662H221.2ZM222.47 198.518C223.366 201.706 224.647 204.434 226.33 206.677L227.93 205.478C226.423 203.468 225.239 200.975 224.395 197.977L222.47 198.518ZM226.337 206.686C228.022 208.883 230.075 210.579 232.49 211.761L233.37 209.964C231.242 208.923 229.428 207.429 227.923 205.469L226.337 206.686ZM232.506 211.768C234.927 212.902 237.637 213.458 240.615 213.458V211.458C237.89 211.458 235.476 210.95 233.354 209.957L232.506 211.768ZM240.615 213.458C243.532 213.458 245.965 213.113 247.865 212.375L247.14 210.51C245.56 211.125 243.401 211.458 240.615 211.458V213.458ZM247.878 212.369C249.713 211.626 251.278 210.821 252.56 209.949L251.435 208.296C250.301 209.067 248.869 209.809 247.127 210.516L247.878 212.369ZM252.582 209.934C253.797 209.059 254.847 208.278 255.729 207.592L254.501 206.013C253.643 206.68 252.615 207.446 251.413 208.311L252.582 209.934ZM255.735 207.587C256.486 206.994 257.286 206.715 258.16 206.715V204.715C256.811 204.715 255.58 205.161 254.495 206.018L255.735 207.587ZM258.16 206.715C259.309 206.715 260.064 207.13 260.585 207.929L262.26 206.836C261.331 205.412 259.911 204.715 258.16 204.715V206.715ZM260.637 208.002L265.785 214.527L267.355 213.288L262.208 206.763L260.637 208.002ZM265.81 213.258C263.88 215.517 261.793 217.414 259.551 218.956L260.684 220.604C263.082 218.956 265.297 216.938 267.33 214.557L265.81 213.258ZM259.563 218.948C257.302 220.455 254.951 221.677 252.509 222.617L253.226 224.483C255.811 223.489 258.293 222.198 260.672 220.612L259.563 218.948ZM252.518 222.613C250.121 223.506 247.628 224.141 245.039 224.518L245.326 226.497C248.053 226.1 250.684 225.431 253.217 224.487L252.518 222.613ZM245.036 224.518C242.474 224.898 239.913 225.087 237.353 225.087V227.087C240.012 227.087 242.671 226.89 245.329 226.497L245.036 224.518ZM237.353 225.087C232.887 225.087 228.692 224.266 224.76 222.627L223.99 224.473C228.178 226.218 232.635 227.087 237.353 227.087V225.087ZM224.769 222.631C220.84 220.947 217.402 218.516 214.451 215.33L212.984 216.69C216.123 220.078 219.79 222.673 223.981 224.469L224.769 222.631ZM214.451 215.33C211.505 212.15 209.152 208.253 207.403 203.622L205.532 204.328C207.36 209.17 209.84 213.297 212.984 216.69L214.451 215.33ZM207.407 203.633C205.714 198.977 204.858 193.658 204.858 187.662H202.858C202.858 193.847 203.741 199.403 205.528 204.317L207.407 203.633ZM204.858 187.662C204.858 182.296 205.617 177.353 207.126 172.826L205.229 172.194C203.644 176.947 202.858 182.106 202.858 187.662H204.858ZM207.124 172.832C208.679 168.261 210.934 164.346 213.881 161.071L212.394 159.734C209.251 163.226 206.866 167.383 205.231 172.188L207.124 172.832ZM213.885 161.066C216.827 157.752 220.473 155.153 224.843 153.274L224.052 151.436C219.432 153.424 215.538 156.19 212.39 159.739L213.885 161.066ZM224.843 153.274C229.191 151.403 234.224 150.455 239.963 150.455V148.455C234.004 148.455 228.694 149.44 224.052 151.436L224.843 153.274ZM239.963 150.455C245.415 150.455 250.133 151.332 254.14 153.056L254.93 151.219C250.624 149.366 245.627 148.455 239.963 148.455V150.455ZM254.144 153.058C258.227 154.794 261.891 157.282 265.138 160.53L266.552 159.115C263.129 155.693 259.253 153.057 254.926 151.217L254.144 153.058ZM265.034 159.237L260.322 165.762L261.943 166.933L266.656 160.408L265.034 159.237ZM317.091 193.245H318.091V192.197L317.044 192.246L317.091 193.245ZM304.041 194.622L304.217 195.607L304.23 195.605L304.041 194.622ZM292.369 211.805L291.775 212.61L291.785 212.617L292.369 211.805ZM309.189 211.878L309.629 212.775L309.636 212.772L309.189 211.878ZM317.091 205.787L317.817 206.475L318.091 206.186V205.787H317.091ZM276.056 160.982L275.381 160.245L274.798 160.779L275.183 161.469L276.056 160.982ZM318.614 151.412L318.224 152.334L318.236 152.338L318.614 151.412ZM327.314 157.357L326.579 158.036L326.586 158.043L327.314 157.357ZM332.679 166.42L331.733 166.744L331.737 166.756L332.679 166.42ZM334.564 225V226H335.564V225H334.564ZM322.529 224.275L322.028 225.14L322.045 225.151L322.063 225.16L322.529 224.275ZM320.354 221.158L319.395 221.442L319.401 221.463L319.408 221.483L320.354 221.158ZM318.759 215.792L319.717 215.508L319.267 213.993L318.091 215.048L318.759 215.792ZM313.249 220.288L313.824 221.106L313.831 221.101L313.838 221.095L313.249 220.288ZM307.666 223.477L308.077 224.389L307.666 223.477ZM301.431 225.435L301.239 224.454L301.227 224.456L301.214 224.459L301.431 225.435ZM285.481 224.928L285.17 225.878L285.178 225.88L285.186 225.883L285.481 224.928ZM278.594 221.085L277.935 221.838L278.594 221.085ZM273.446 200.423L274.392 200.746L274.395 200.739L273.446 200.423ZM276.491 195.057L275.732 194.407L275.726 194.413L275.721 194.419L276.491 195.057ZM290.411 186.357L290.095 185.409L290.091 185.41L290.411 186.357ZM302.011 183.675L302.163 184.663L302.174 184.662L302.011 183.675ZM317.091 182.37L317.117 183.37L318.091 183.345V182.37H317.091ZM313.901 167L313.15 167.661L313.157 167.668L313.901 167ZM297.444 164.39L297.113 163.446L297.106 163.449L297.444 164.39ZM292.441 166.71L292.934 167.58L292.945 167.574L292.956 167.567L292.441 166.71ZM288.454 168.957L287.965 168.085L287.957 168.089L287.95 168.094L288.454 168.957ZM281.349 169.03L280.735 169.819L280.749 169.83L280.763 169.841L281.349 169.03ZM279.246 166.71L278.373 167.197L278.382 167.214L278.393 167.231L279.246 166.71ZM317.044 192.246C311.844 192.489 307.443 192.952 303.853 193.64L304.23 195.605C307.696 194.94 311.995 194.484 317.138 194.244L317.044 192.246ZM303.866 193.638C300.29 194.275 297.366 195.117 295.128 196.185L295.989 197.99C298.005 197.028 300.736 196.227 304.216 195.607L303.866 193.638ZM295.128 196.185C292.908 197.245 291.216 198.527 290.164 200.078L291.819 201.201C292.603 200.046 293.956 198.96 295.989 197.99L295.128 196.185ZM290.164 200.078C289.136 201.593 288.614 203.262 288.614 205.062H290.614C290.614 203.673 291.01 202.394 291.819 201.201L290.164 200.078ZM288.614 205.062C288.614 208.393 289.595 211.003 291.775 212.61L292.962 211C291.469 209.9 290.614 208.015 290.614 205.062H288.614ZM291.785 212.617C293.884 214.124 296.546 214.835 299.691 214.835V212.835C296.843 212.835 294.623 212.193 292.952 210.993L291.785 212.617ZM299.691 214.835C303.481 214.835 306.805 214.162 309.629 212.775L308.748 210.98C306.256 212.203 303.248 212.835 299.691 212.835V214.835ZM309.636 212.772C312.468 211.356 315.193 209.247 317.817 206.475L316.365 205.1C313.866 207.741 311.323 209.692 308.741 210.983L309.636 212.772ZM318.091 205.787V193.245H316.091V205.787H318.091ZM276.731 161.72C285.094 154.066 295.146 150.237 306.941 150.237V148.237C294.667 148.237 284.128 152.239 275.381 160.245L276.731 161.72ZM306.941 150.237C311.18 150.237 314.935 150.944 318.224 152.334L319.003 150.491C315.429 148.981 311.403 148.237 306.941 148.237V150.237ZM318.236 152.338C321.541 153.688 324.316 155.589 326.579 158.036L328.048 156.679C325.574 154.003 322.55 151.94 318.992 150.487L318.236 152.338ZM326.586 158.043C328.849 160.445 330.567 163.34 331.733 166.744L333.625 166.096C332.374 162.444 330.515 159.297 328.041 156.672L326.586 158.043ZM331.737 166.756C332.951 170.164 333.564 173.915 333.564 178.02H335.564C335.564 173.715 334.92 169.733 333.621 166.084L331.737 166.756ZM333.564 178.02V225H335.564V178.02H333.564ZM334.564 224H326.444V226H334.564V224ZM326.444 224C324.823 224 323.706 223.765 322.994 223.39L322.063 225.16C323.188 225.752 324.681 226 326.444 226V224ZM323.03 223.41C322.407 223.049 321.793 222.269 321.299 220.832L319.408 221.483C319.977 223.139 320.814 224.438 322.028 225.14L323.03 223.41ZM321.312 220.873L319.717 215.508L317.8 216.077L319.395 221.442L321.312 220.873ZM318.091 215.048C316.227 216.721 314.417 218.197 312.659 219.48L313.838 221.095C315.657 219.768 317.52 218.248 319.427 216.537L318.091 215.048ZM312.674 219.469C310.936 220.691 309.13 221.722 307.256 222.566L308.077 224.389C310.069 223.493 311.985 222.398 313.824 221.106L312.674 219.469ZM307.256 222.566C305.397 223.402 303.392 224.032 301.239 224.454L301.623 226.416C303.917 225.968 306.069 225.293 308.077 224.389L307.256 222.566ZM301.214 224.459C299.123 224.924 296.78 225.16 294.181 225.16V227.16C296.899 227.16 299.39 226.913 301.648 226.411L301.214 224.459ZM294.181 225.16C291.127 225.16 288.328 224.761 285.776 223.972L285.186 225.883C287.951 226.738 290.952 227.16 294.181 227.16V225.16ZM285.792 223.977C283.25 223.145 281.075 221.928 279.252 220.332L277.935 221.838C279.979 223.626 282.395 224.97 285.17 225.878L285.792 223.977ZM279.252 220.332C277.44 218.746 276.028 216.771 275.02 214.388L273.178 215.167C274.296 217.811 275.881 220.04 277.935 221.838L279.252 220.332ZM275.02 214.388C274.019 212.022 273.504 209.235 273.504 206.005H271.504C271.504 209.445 272.052 212.506 273.178 215.167L275.02 214.388ZM273.504 206.005C273.504 204.233 273.799 202.482 274.392 200.746L272.5 200.099C271.837 202.037 271.504 204.007 271.504 206.005H273.504ZM274.395 200.739C274.98 198.983 275.93 197.302 277.261 195.696L275.721 194.419C274.249 196.196 273.169 198.092 272.497 200.106L274.395 200.739ZM277.25 195.708C278.628 194.101 280.414 192.565 282.624 191.107L281.523 189.438C279.19 190.976 277.254 192.631 275.732 194.407L277.25 195.708ZM282.624 191.107C284.808 189.667 287.505 188.396 290.732 187.305L290.091 185.41C286.744 186.542 283.883 187.881 281.523 189.438L282.624 191.107ZM290.727 187.306C293.997 186.216 297.807 185.334 302.163 184.663L301.859 182.687C297.419 183.37 293.495 184.275 290.095 185.409L290.727 187.306ZM302.174 184.662C306.517 183.946 311.496 183.514 317.117 183.37L317.066 181.37C311.376 181.516 306.302 181.954 301.849 182.688L302.174 184.662ZM318.091 182.37V178.02H316.091V182.37H318.091ZM318.091 178.02C318.091 172.928 317.008 168.963 314.645 166.332L313.157 167.668C315.048 169.774 316.091 173.155 316.091 178.02H318.091ZM314.652 166.339C312.29 163.656 308.916 162.375 304.694 162.375V164.375C308.494 164.375 311.259 165.511 313.15 167.661L314.652 166.339ZM304.694 162.375C301.724 162.375 299.187 162.72 297.113 163.446L297.774 165.334C299.567 164.706 301.863 164.375 304.694 164.375V162.375ZM297.106 163.449C295.17 164.144 293.442 164.943 291.927 165.853L292.956 167.567C294.341 166.737 295.947 165.99 297.782 165.331L297.106 163.449ZM291.948 165.84C290.499 166.661 289.172 167.409 287.965 168.085L288.942 169.83C290.152 169.152 291.483 168.402 292.934 167.58L291.948 165.84ZM287.95 168.094C286.955 168.674 285.826 168.972 284.539 168.972V170.972C286.151 170.972 287.632 170.594 288.958 169.821L287.95 168.094ZM284.539 168.972C283.455 168.972 282.606 168.705 281.934 168.219L280.763 169.841C281.831 170.612 283.109 170.972 284.539 170.972V168.972ZM281.963 168.241C281.18 167.632 280.563 166.947 280.099 166.189L278.393 167.231C278.992 168.213 279.777 169.075 280.735 169.819L281.963 168.241ZM280.12 166.223L276.93 160.496L275.183 161.469L278.373 167.197L280.12 166.223ZM368.321 163.52L367.33 163.648L367.737 166.801L369.208 163.983L368.321 163.52ZM376.586 153.08L377.205 153.866L377.213 153.86L376.586 153.08ZM396.161 151.485L397.158 151.571L397.207 151.006L396.746 150.674L396.161 151.485ZM395.001 164.897L395.965 165.165L395.99 165.076L395.998 164.984L395.001 164.897ZM393.914 166.783L394.528 167.572L394.539 167.563L393.914 166.783ZM388.839 166.927L388.669 167.913L388.675 167.914L388.839 166.927ZM379.414 167.435L379.765 168.371L379.414 167.435ZM375.209 169.972L375.87 170.723L375.872 170.721L375.209 169.972ZM371.946 173.887L371.098 173.357L371.092 173.367L371.087 173.377L371.946 173.887ZM369.336 179.18L368.413 178.797L368.336 178.981V179.18H369.336ZM369.336 225V226H370.336V225H369.336ZM351.429 225H350.429V226H351.429V225ZM351.429 150.615V149.615H350.429V150.615H351.429ZM365.784 151.63L365.102 152.361L365.115 152.374L365.129 152.386L365.784 151.63ZM367.234 155.11L368.226 154.982L368.224 154.969L367.234 155.11ZM369.208 163.983C371.478 159.633 374.149 156.273 377.205 153.865L375.968 152.295C372.644 154.913 369.805 158.514 367.435 163.057L369.208 163.983ZM377.213 153.86C380.213 151.45 383.759 150.237 387.896 150.237V148.237C383.334 148.237 379.34 149.587 375.96 152.3L377.213 153.86ZM387.896 150.237C391.189 150.237 393.718 150.956 395.577 152.296L396.746 150.674C394.448 149.017 391.468 148.237 387.896 148.237V150.237ZM395.165 151.399L394.005 164.811L395.998 164.984L397.158 151.571L395.165 151.399ZM394.038 164.63C393.828 165.386 393.549 165.794 393.289 166.002L394.539 167.563C395.246 166.998 395.692 166.149 395.965 165.165L394.038 164.63ZM393.3 165.993C393.099 166.149 392.74 166.29 392.101 166.29V168.29C393.009 168.29 393.859 168.092 394.528 167.572L393.3 165.993ZM392.101 166.29C391.463 166.29 390.442 166.181 389.003 165.941L388.675 167.914C390.136 168.157 391.29 168.29 392.101 168.29V166.29ZM389.009 165.942C387.554 165.691 386.12 165.565 384.706 165.565V167.565C386 167.565 387.321 167.68 388.669 167.913L389.009 165.942ZM384.706 165.565C382.628 165.565 380.742 165.869 379.063 166.499L379.765 168.371C381.18 167.841 382.821 167.565 384.706 167.565V165.565ZM379.063 166.499C377.4 167.122 375.893 168.032 374.546 169.223L375.872 170.721C377.038 169.689 378.335 168.908 379.765 168.371L379.063 166.499ZM374.548 169.222C373.258 170.357 372.11 171.739 371.098 173.357L372.794 174.417C373.716 172.942 374.743 171.715 375.87 170.723L374.548 169.222ZM371.087 173.377C370.14 174.971 369.249 176.779 368.413 178.797L370.26 179.563C371.067 177.617 371.916 175.897 372.806 174.398L371.087 173.377ZM368.336 179.18V225H370.336V179.18H368.336ZM369.336 224H351.429V226H369.336V224ZM352.429 225V150.615H350.429V225H352.429ZM351.429 151.615H361.941V149.615H351.429V151.615ZM361.941 151.615C363.717 151.615 364.666 151.955 365.102 152.361L366.466 150.899C365.452 149.952 363.839 149.615 361.941 149.615V151.615ZM365.129 152.386C365.576 152.773 366.012 153.631 366.244 155.251L368.224 154.969C367.972 153.206 367.442 151.744 366.439 150.874L365.129 152.386ZM366.242 155.238L367.33 163.648L369.313 163.392L368.226 154.982L366.242 155.238ZM451.319 179.252V180.252H452.319V179.252H451.319ZM450.304 172.728L449.347 173.017L449.351 173.03L449.356 173.044L450.304 172.728ZM442.402 163.665L441.981 164.572L441.994 164.578L442.008 164.584L442.402 163.665ZM423.189 166.71L422.488 165.997L422.482 166.003L423.189 166.71ZM417.534 179.252L416.546 179.102L416.371 180.252H417.534V179.252ZM417.172 190.055V189.055H416.093L416.175 190.131L417.172 190.055ZM419.202 199.987L418.267 200.342L418.269 200.348L419.202 199.987ZM423.407 206.875L422.681 207.563L422.69 207.572L423.407 206.875ZM429.569 210.935L429.208 211.867L429.219 211.872L429.231 211.876L429.569 210.935ZM445.012 211.225L444.709 210.272L444.702 210.274L445.012 211.225ZM450.522 208.978L450.064 208.088L450.053 208.094L450.522 208.978ZM454.654 206.73L454.166 205.857L454.158 205.862L454.15 205.866L454.654 206.73ZM461.469 207.382L460.632 207.929L460.656 207.966L460.684 208.002L461.469 207.382ZM466.617 213.908L467.377 214.557L467.91 213.933L467.402 213.288L466.617 213.908ZM459.947 219.78L460.478 220.627L460.49 220.62L459.947 219.78ZM452.189 223.55L452.516 224.495L452.526 224.492L452.189 223.55ZM443.997 225.508L443.86 224.517L443.858 224.517L443.997 225.508ZM421.522 223.55L421.157 224.481L421.166 224.485L421.522 223.55ZM409.922 215.938L409.204 216.634L409.21 216.639L409.922 215.938ZM402.164 203.467L401.229 203.822L401.23 203.825L402.164 203.467ZM401.802 171.93L402.74 172.277L402.741 172.273L401.802 171.93ZM408.834 160.257L408.101 159.577L408.101 159.578L408.834 160.257ZM420.072 152.355L419.673 151.438L419.669 151.44L420.072 152.355ZM448.057 151.702L448.41 150.767L448.057 151.702ZM458.279 158.3L457.566 159.001L457.572 159.007L458.279 158.3ZM464.949 168.885L464.014 169.24L464.019 169.253L464.949 168.885ZM466.544 188.677L467.39 189.211L467.396 189.202L467.402 189.192L466.544 188.677ZM452.319 179.252C452.319 176.834 451.966 174.551 451.253 172.411L449.356 173.044C449.996 174.964 450.319 177.031 450.319 179.252H452.319ZM451.261 172.438C450.597 170.239 449.568 168.303 448.169 166.645L446.64 167.935C447.851 169.37 448.755 171.059 449.347 173.017L451.261 172.438ZM448.169 166.645C446.754 164.969 444.955 163.671 442.796 162.746L442.008 164.584C443.908 165.399 445.444 166.518 446.64 167.935L448.169 166.645ZM442.822 162.758C440.683 161.767 438.214 161.287 435.442 161.287V163.287C437.986 163.287 440.157 163.727 441.981 164.572L442.822 162.758ZM435.442 161.287C430.072 161.287 425.713 162.824 422.488 165.997L423.891 167.423C426.659 164.699 430.469 163.287 435.442 163.287V161.287ZM422.482 166.003C419.342 169.143 417.389 173.544 416.546 179.102L418.523 179.403C419.323 174.134 421.14 170.173 423.896 167.417L422.482 166.003ZM417.534 180.252H451.319V178.252H417.534V180.252ZM416.175 190.131C416.47 194.019 417.162 197.429 418.267 200.342L420.137 199.633C419.115 196.94 418.454 193.727 418.169 189.979L416.175 190.131ZM418.269 200.348C419.371 203.204 420.837 205.617 422.681 207.563L424.133 206.187C422.496 204.46 421.159 202.281 420.135 199.627L418.269 200.348ZM422.69 207.572C424.532 209.466 426.708 210.898 429.208 211.867L429.931 210.003C427.694 209.135 425.761 207.861 424.123 206.178L422.69 207.572ZM429.231 211.876C431.769 212.79 434.544 213.24 437.544 213.24V211.24C434.745 211.24 432.203 210.82 429.908 209.994L429.231 211.876ZM437.544 213.24C440.517 213.24 443.116 212.894 445.321 212.176L444.702 210.274C442.75 210.91 440.371 211.24 437.544 211.24V213.24ZM445.315 212.178C447.484 211.488 449.379 210.717 450.991 209.861L450.053 208.094C448.571 208.881 446.793 209.609 444.709 210.272L445.315 212.178ZM450.98 209.866C452.585 209.039 453.979 208.282 455.158 207.594L454.15 205.866C453.01 206.532 451.648 207.272 450.064 208.089L450.98 209.866ZM455.143 207.603C456.238 206.989 457.231 206.715 458.134 206.715V204.715C456.814 204.715 455.487 205.118 454.166 205.857L455.143 207.603ZM458.134 206.715C459.346 206.715 460.118 207.141 460.632 207.929L462.307 206.836C461.371 205.401 459.919 204.715 458.134 204.715V206.715ZM460.684 208.002L465.832 214.527L467.402 213.288L462.254 206.763L460.684 208.002ZM465.856 213.258C463.935 215.507 461.784 217.4 459.404 218.94L460.49 220.62C463.039 218.97 465.335 216.948 467.377 214.557L465.856 213.258ZM459.415 218.933C457.011 220.442 454.49 221.666 451.853 222.608L452.526 224.492C455.301 223.5 457.953 222.212 460.478 220.627L459.415 218.933ZM451.863 222.605C449.266 223.502 446.599 224.139 443.86 224.517L444.133 226.498C447.001 226.103 449.795 225.435 452.516 224.495L451.863 222.605ZM443.858 224.517C441.146 224.898 438.51 225.087 435.949 225.087V227.087C438.609 227.087 441.338 226.891 444.136 226.498L443.858 224.517ZM435.949 225.087C430.888 225.087 426.201 224.26 421.877 222.615L421.166 224.485C425.736 226.223 430.667 227.087 435.949 227.087V225.087ZM421.886 222.619C417.568 220.929 413.82 218.469 410.634 215.236L409.21 216.639C412.597 220.076 416.583 222.691 421.157 224.481L421.886 222.619ZM410.639 215.241C407.458 211.966 404.941 207.929 403.098 203.11L401.23 203.825C403.158 208.866 405.813 213.143 409.204 216.634L410.639 215.241ZM403.099 203.113C401.266 198.271 400.337 192.643 400.337 186.213H398.337C398.337 192.832 399.293 198.708 401.229 203.822L403.099 203.113ZM400.337 186.213C400.337 181.247 401.14 176.605 402.74 172.277L400.864 171.583C399.177 176.149 398.337 181.028 398.337 186.213H400.337ZM402.741 172.273C404.342 167.894 406.619 164.12 409.568 160.937L408.101 159.578C404.959 162.968 402.548 166.976 400.863 171.587L402.741 172.273ZM409.567 160.938C412.563 157.708 416.194 155.152 420.474 153.27L419.669 151.44C415.153 153.425 411.293 156.137 408.101 159.577L409.567 160.938ZM420.47 153.272C424.774 151.401 429.638 150.455 435.079 150.455V148.455C429.404 148.455 424.263 149.442 419.673 151.438L420.47 153.272ZM435.079 150.455C439.66 150.455 443.864 151.187 447.703 152.638L448.41 150.767C444.323 149.222 439.876 148.455 435.079 148.455V150.455ZM447.703 152.638C451.537 154.087 454.82 156.209 457.566 159.001L458.992 157.599C456.035 154.591 452.503 152.314 448.41 150.767L447.703 152.638ZM457.572 159.007C460.313 161.748 462.464 165.152 464.014 169.24L465.884 168.53C464.245 164.208 461.949 160.556 458.986 157.593L457.572 159.007ZM464.019 169.253C465.608 173.271 466.414 177.904 466.414 183.167H468.414C468.414 177.701 467.577 172.812 465.879 168.517L464.019 169.253ZM466.414 183.167C466.414 184.49 466.343 185.57 466.209 186.419C466.073 187.282 465.882 187.838 465.687 188.163L467.402 189.192C467.787 188.55 468.031 187.704 468.185 186.731C468.34 185.744 468.414 184.552 468.414 183.167H466.414ZM465.699 188.144C465.384 188.642 464.697 189.055 463.209 189.055V191.055C465.008 191.055 466.545 190.549 467.39 189.211L465.699 188.144ZM463.209 189.055H417.172V191.055H463.209V189.055ZM528.775 179.252V180.252H529.775V179.252H528.775ZM527.76 172.728L526.803 173.017L526.807 173.03L526.812 173.044L527.76 172.728ZM519.858 163.665L519.437 164.572L519.451 164.578L519.464 164.584L519.858 163.665ZM500.645 166.71L499.944 165.997L499.938 166.003L500.645 166.71ZM494.99 179.252L494.002 179.102L493.827 180.252H494.99V179.252ZM494.628 190.055V189.055H493.549L493.631 190.131L494.628 190.055ZM496.658 199.987L495.723 200.342L495.725 200.348L496.658 199.987ZM500.863 206.875L500.137 207.563L500.146 207.572L500.863 206.875ZM507.025 210.935L506.664 211.867L506.675 211.872L506.687 211.876L507.025 210.935ZM522.468 211.225L522.165 210.272L522.158 210.274L522.468 211.225ZM527.978 208.978L527.52 208.088L527.509 208.094L527.978 208.978ZM532.11 206.73L531.622 205.857L531.614 205.862L531.606 205.866L532.11 206.73ZM538.925 207.382L538.088 207.929L538.112 207.966L538.14 208.002L538.925 207.382ZM544.073 213.908L544.833 214.557L545.366 213.933L544.858 213.288L544.073 213.908ZM537.403 219.78L537.934 220.627L537.946 220.62L537.403 219.78ZM529.645 223.55L529.972 224.495L529.982 224.492L529.645 223.55ZM521.453 225.508L521.316 224.517L521.314 224.517L521.453 225.508ZM498.978 223.55L498.613 224.481L498.622 224.485L498.978 223.55ZM487.378 215.938L486.661 216.634L486.666 216.639L487.378 215.938ZM479.62 203.467L478.685 203.822L478.686 203.825L479.62 203.467ZM479.258 171.93L480.196 172.277L480.197 172.273L479.258 171.93ZM486.29 160.257L485.557 159.577L485.557 159.578L486.29 160.257ZM497.528 152.355L497.129 151.438L497.125 151.44L497.528 152.355ZM525.513 151.702L525.866 150.767L525.513 151.702ZM535.735 158.3L535.022 159.001L535.028 159.007L535.735 158.3ZM542.405 168.885L541.47 169.24L541.475 169.253L542.405 168.885ZM544 188.677L544.846 189.211L544.852 189.202L544.858 189.192L544 188.677ZM529.775 179.252C529.775 176.834 529.422 174.551 528.709 172.411L526.812 173.044C527.452 174.964 527.775 177.031 527.775 179.252H529.775ZM528.718 172.438C528.053 170.239 527.024 168.303 525.625 166.645L524.096 167.935C525.307 169.37 526.211 171.059 526.803 173.017L528.718 172.438ZM525.625 166.645C524.21 164.969 522.412 163.671 520.252 162.746L519.464 164.584C521.364 165.399 522.9 166.518 524.096 167.935L525.625 166.645ZM520.278 162.758C518.139 161.767 515.67 161.287 512.898 161.287V163.287C515.442 163.287 517.613 163.727 519.437 164.572L520.278 162.758ZM512.898 161.287C507.528 161.287 503.169 162.824 499.944 165.997L501.347 167.423C504.115 164.699 507.925 163.287 512.898 163.287V161.287ZM499.938 166.003C496.798 169.143 494.845 173.544 494.002 179.102L495.979 179.403C496.779 174.134 498.596 170.173 501.352 167.417L499.938 166.003ZM494.99 180.252H528.775V178.252H494.99V180.252ZM493.631 190.131C493.926 194.019 494.618 197.429 495.723 200.342L497.593 199.633C496.571 196.94 495.91 193.727 495.625 189.979L493.631 190.131ZM495.725 200.348C496.827 203.204 498.293 205.617 500.137 207.563L501.589 206.187C499.952 204.46 498.615 202.281 497.591 199.627L495.725 200.348ZM500.146 207.572C501.988 209.466 504.164 210.898 506.664 211.867L507.387 210.003C505.15 209.135 503.218 207.861 501.58 206.178L500.146 207.572ZM506.687 211.876C509.225 212.79 512 213.24 515 213.24V211.24C512.201 211.24 509.659 210.82 507.364 209.994L506.687 211.876ZM515 213.24C517.973 213.24 520.573 212.894 522.777 212.176L522.158 210.274C520.206 210.91 517.827 211.24 515 211.24V213.24ZM522.771 212.178C524.94 211.488 526.835 210.717 528.447 209.861L527.509 208.094C526.027 208.881 524.249 209.609 522.165 210.272L522.771 212.178ZM528.436 209.866C530.042 209.039 531.435 208.282 532.614 207.594L531.606 205.866C530.466 206.532 529.104 207.272 527.52 208.089L528.436 209.866ZM532.599 207.603C533.694 206.989 534.687 206.715 535.59 206.715V204.715C534.27 204.715 532.943 205.118 531.622 205.857L532.599 207.603ZM535.59 206.715C536.802 206.715 537.574 207.141 538.088 207.929L539.763 206.836C538.827 205.401 537.375 204.715 535.59 204.715V206.715ZM538.14 208.002L543.288 214.527L544.858 213.288L539.71 206.763L538.14 208.002ZM543.312 213.258C541.391 215.507 539.24 217.4 536.86 218.94L537.946 220.62C540.495 218.97 542.791 216.948 544.833 214.557L543.312 213.258ZM536.871 218.933C534.467 220.442 531.947 221.666 529.309 222.608L529.982 224.492C532.757 223.5 535.409 222.212 537.934 220.627L536.871 218.933ZM529.319 222.605C526.723 223.502 524.055 224.139 521.316 224.517L521.589 226.498C524.457 226.103 527.251 225.435 529.972 224.495L529.319 222.605ZM521.314 224.517C518.602 224.898 515.966 225.087 513.405 225.087V227.087C516.065 227.087 518.794 226.891 521.592 226.498L521.314 224.517ZM513.405 225.087C508.345 225.087 503.657 224.26 499.333 222.615L498.622 224.485C503.192 226.223 508.123 227.087 513.405 227.087V225.087ZM499.342 222.619C495.024 220.929 491.276 218.469 488.09 215.236L486.666 216.639C490.053 220.076 494.039 222.691 498.613 224.481L499.342 222.619ZM488.095 215.241C484.914 211.966 482.397 207.929 480.554 203.11L478.686 203.825C480.614 208.866 483.269 213.143 486.661 216.634L488.095 215.241ZM480.556 203.113C478.722 198.271 477.793 192.643 477.793 186.213H475.793C475.793 192.832 476.749 198.708 478.685 203.822L480.556 203.113ZM477.793 186.213C477.793 181.247 478.596 176.605 480.196 172.277L478.32 171.583C476.633 176.149 475.793 181.028 475.793 186.213H477.793ZM480.197 172.273C481.798 167.894 484.075 164.12 487.024 160.937L485.557 159.578C482.416 162.968 480.004 166.976 478.319 171.587L480.197 172.273ZM487.023 160.938C490.019 157.708 493.65 155.152 497.93 153.27L497.125 151.44C492.609 153.425 488.749 156.137 485.557 159.577L487.023 160.938ZM497.927 153.272C502.23 151.401 507.094 150.455 512.535 150.455V148.455C506.86 148.455 501.719 149.442 497.129 151.438L497.927 153.272ZM512.535 150.455C517.116 150.455 521.32 151.187 525.159 152.638L525.866 150.767C521.779 149.222 517.332 148.455 512.535 148.455V150.455ZM525.159 152.638C528.993 154.087 532.276 156.209 535.022 159.001L536.448 157.599C533.491 154.591 529.959 152.314 525.866 150.767L525.159 152.638ZM535.028 159.007C537.769 161.748 539.92 165.152 541.47 169.24L543.34 168.53C541.701 164.208 539.405 160.556 536.442 157.593L535.028 159.007ZM541.475 169.253C543.064 173.271 543.87 177.904 543.87 183.167H545.87C545.87 177.701 545.033 172.812 543.335 168.517L541.475 169.253ZM543.87 183.167C543.87 184.49 543.799 185.57 543.665 186.419C543.529 187.282 543.338 187.838 543.143 188.163L544.858 189.192C545.243 188.55 545.487 187.704 545.641 186.731C545.796 185.744 545.87 184.552 545.87 183.167H543.87ZM543.155 188.144C542.84 188.642 542.153 189.055 540.665 189.055V191.055C542.464 191.055 544.001 190.549 544.846 189.211L543.155 188.144ZM540.665 189.055H494.628V191.055H540.665V189.055ZM575.201 163.52L574.21 163.648L574.617 166.801L576.088 163.983L575.201 163.52ZM583.466 153.08L584.085 153.866L584.092 153.86L583.466 153.08ZM603.041 151.485L604.038 151.571L604.087 151.006L603.626 150.674L603.041 151.485ZM601.881 164.897L602.845 165.165L602.87 165.076L602.878 164.984L601.881 164.897ZM600.794 166.783L601.408 167.572L601.419 167.563L600.794 166.783ZM595.719 166.927L595.549 167.913L595.554 167.914L595.719 166.927ZM586.294 167.435L586.645 168.371L586.294 167.435ZM582.089 169.972L582.75 170.723L582.751 170.721L582.089 169.972ZM578.826 173.887L577.978 173.357L577.972 173.367L577.967 173.377L578.826 173.887ZM576.216 179.18L575.293 178.797L575.216 178.981V179.18H576.216ZM576.216 225V226H577.216V225H576.216ZM558.309 225H557.309V226H558.309V225ZM558.309 150.615V149.615H557.309V150.615H558.309ZM572.664 151.63L571.982 152.361L571.995 152.374L572.009 152.386L572.664 151.63ZM574.114 155.11L575.106 154.982L575.104 154.969L574.114 155.11ZM576.088 163.983C578.358 159.633 581.029 156.273 584.085 153.865L582.848 152.295C579.524 154.913 576.685 158.514 574.315 163.057L576.088 163.983ZM584.092 153.86C587.093 151.45 590.639 150.237 594.776 150.237V148.237C590.214 148.237 586.219 149.587 582.84 152.3L584.092 153.86ZM594.776 150.237C598.068 150.237 600.598 150.956 602.457 152.296L603.626 150.674C601.328 149.017 598.348 148.237 594.776 148.237V150.237ZM602.045 151.399L600.885 164.811L602.878 164.984L604.038 151.571L602.045 151.399ZM600.918 164.63C600.708 165.386 600.429 165.794 600.169 166.002L601.419 167.563C602.126 166.998 602.572 166.149 602.845 165.165L600.918 164.63ZM600.18 165.993C599.979 166.149 599.62 166.29 598.981 166.29V168.29C599.889 168.29 600.739 168.092 601.408 167.572L600.18 165.993ZM598.981 166.29C598.343 166.29 597.322 166.181 595.883 165.941L595.554 167.914C597.015 168.157 598.17 168.29 598.981 168.29V166.29ZM595.889 165.942C594.434 165.691 592.999 165.565 591.586 165.565V167.565C592.88 167.565 594.201 167.68 595.549 167.913L595.889 165.942ZM591.586 165.565C589.508 165.565 587.622 165.869 585.943 166.499L586.645 168.371C588.059 167.841 589.701 167.565 591.586 167.565V165.565ZM585.943 166.499C584.28 167.122 582.773 168.032 581.426 169.223L582.751 170.721C583.918 169.689 585.215 168.908 586.645 168.371L585.943 166.499ZM581.428 169.222C580.138 170.357 578.99 171.739 577.978 173.357L579.674 174.417C580.596 172.942 581.623 171.715 582.75 170.723L581.428 169.222ZM577.967 173.377C577.02 174.971 576.129 176.779 575.293 178.797L577.14 179.563C577.947 177.617 578.796 175.897 579.686 174.398L577.967 173.377ZM575.216 179.18V225H577.216V179.18H575.216ZM576.216 224H558.309V226H576.216V224ZM559.309 225V150.615H557.309V225H559.309ZM558.309 151.615H568.821V149.615H558.309V151.615ZM568.821 151.615C570.597 151.615 571.546 151.955 571.982 152.361L573.346 150.899C572.332 149.952 570.719 149.615 568.821 149.615V151.615ZM572.009 152.386C572.455 152.773 572.892 153.631 573.124 155.251L575.104 154.969C574.852 153.206 574.322 151.744 573.319 150.874L572.009 152.386ZM573.122 155.238L574.21 163.648L576.193 163.392L575.106 154.982L573.122 155.238Z" fill="#832DBA"/>
<path d="M237.6 116.733C237.484 116.946 237.305 117.052 237.063 117.052C236.918 117.052 236.754 116.999 236.57 116.892C236.386 116.786 236.159 116.67 235.889 116.544C235.628 116.409 235.313 116.288 234.946 116.182C234.579 116.066 234.144 116.008 233.641 116.008C233.206 116.008 232.815 116.066 232.467 116.182C232.119 116.288 231.819 116.438 231.568 116.631C231.326 116.825 231.137 117.052 231.002 117.313C230.876 117.564 230.814 117.84 230.814 118.139C230.814 118.516 230.92 118.831 231.133 119.082C231.355 119.333 231.645 119.551 232.003 119.734C232.36 119.918 232.766 120.082 233.221 120.227C233.675 120.363 234.139 120.513 234.613 120.677C235.096 120.832 235.565 121.006 236.019 121.199C236.473 121.392 236.879 121.634 237.237 121.924C237.595 122.214 237.88 122.572 238.093 122.997C238.315 123.413 238.426 123.915 238.426 124.505C238.426 125.182 238.305 125.81 238.064 126.39C237.822 126.96 237.464 127.458 236.991 127.883C236.517 128.299 235.937 128.628 235.251 128.869C234.564 129.111 233.772 129.232 232.873 129.232C231.848 129.232 230.92 129.068 230.089 128.739C229.257 128.401 228.552 127.97 227.972 127.448L228.581 126.462C228.658 126.337 228.75 126.24 228.856 126.172C228.962 126.105 229.098 126.071 229.262 126.071C229.436 126.071 229.62 126.139 229.813 126.274C230.006 126.409 230.238 126.559 230.509 126.723C230.789 126.888 231.128 127.038 231.524 127.173C231.92 127.308 232.413 127.376 233.003 127.376C233.506 127.376 233.946 127.313 234.322 127.188C234.7 127.052 235.014 126.873 235.265 126.651C235.516 126.429 235.7 126.172 235.816 125.882C235.942 125.592 236.005 125.283 236.005 124.954C236.005 124.548 235.893 124.215 235.671 123.954C235.458 123.683 235.173 123.456 234.816 123.272C234.458 123.079 234.047 122.915 233.583 122.779C233.129 122.634 232.66 122.485 232.177 122.33C231.703 122.175 231.234 122.001 230.77 121.808C230.316 121.605 229.91 121.354 229.552 121.054C229.194 120.754 228.904 120.387 228.682 119.952C228.469 119.507 228.363 118.971 228.363 118.342C228.363 117.782 228.479 117.245 228.711 116.733C228.943 116.211 229.281 115.757 229.726 115.37C230.171 114.974 230.717 114.659 231.365 114.428C232.012 114.195 232.752 114.079 233.583 114.079C234.55 114.079 235.415 114.234 236.179 114.543C236.952 114.843 237.619 115.259 238.18 115.79L237.6 116.733ZM246.1 129.232C244.94 129.232 244.046 128.908 243.417 128.26C242.799 127.613 242.489 126.68 242.489 125.462V116.472H240.72C240.566 116.472 240.435 116.428 240.329 116.341C240.223 116.245 240.169 116.1 240.169 115.906V114.877L242.576 114.572L243.171 110.034C243.2 109.889 243.263 109.773 243.359 109.686C243.466 109.589 243.601 109.541 243.765 109.541H245.07V114.601H249.319V116.472H245.07V125.288C245.07 125.907 245.22 126.366 245.52 126.665C245.82 126.965 246.206 127.115 246.68 127.115C246.951 127.115 247.183 127.081 247.376 127.013C247.579 126.936 247.753 126.854 247.898 126.767C248.043 126.68 248.164 126.603 248.26 126.535C248.367 126.458 248.459 126.419 248.536 126.419C248.671 126.419 248.792 126.501 248.898 126.665L249.652 127.898C249.208 128.314 248.671 128.642 248.043 128.884C247.415 129.116 246.767 129.232 246.1 129.232ZM259.944 122.388C258.755 122.427 257.74 122.523 256.899 122.678C256.068 122.823 255.387 123.016 254.855 123.258C254.333 123.5 253.951 123.785 253.709 124.113C253.477 124.442 253.361 124.809 253.361 125.215C253.361 125.602 253.424 125.936 253.55 126.216C253.676 126.496 253.845 126.728 254.057 126.912C254.28 127.086 254.536 127.216 254.826 127.303C255.126 127.381 255.445 127.419 255.783 127.419C256.237 127.419 256.653 127.376 257.03 127.289C257.407 127.192 257.76 127.057 258.088 126.883C258.427 126.709 258.746 126.501 259.045 126.259C259.355 126.018 259.654 125.742 259.944 125.433V122.388ZM251.607 116.385C252.419 115.602 253.294 115.017 254.231 114.63C255.169 114.244 256.208 114.05 257.349 114.05C258.171 114.05 258.9 114.186 259.538 114.456C260.176 114.727 260.713 115.104 261.148 115.587C261.583 116.071 261.912 116.656 262.134 117.342C262.356 118.028 262.467 118.782 262.467 119.604V129H261.322C261.071 129 260.877 128.961 260.742 128.884C260.607 128.797 260.5 128.633 260.423 128.391L260.133 126.999C259.746 127.357 259.369 127.676 259.002 127.956C258.635 128.227 258.248 128.459 257.842 128.652C257.436 128.836 257.001 128.976 256.537 129.073C256.083 129.179 255.575 129.232 255.014 129.232C254.444 129.232 253.908 129.155 253.405 129C252.902 128.836 252.462 128.594 252.085 128.275C251.718 127.956 251.423 127.555 251.201 127.071C250.988 126.578 250.882 125.998 250.882 125.331C250.882 124.751 251.041 124.196 251.36 123.664C251.679 123.123 252.197 122.644 252.912 122.228C253.627 121.813 254.56 121.474 255.71 121.213C256.861 120.943 258.272 120.788 259.944 120.749V119.604C259.944 118.463 259.698 117.603 259.205 117.023C258.712 116.433 257.992 116.138 257.044 116.138C256.406 116.138 255.87 116.221 255.435 116.385C255.01 116.54 254.637 116.718 254.318 116.921C254.009 117.115 253.738 117.294 253.506 117.458C253.284 117.613 253.062 117.69 252.839 117.69C252.665 117.69 252.516 117.646 252.39 117.559C252.264 117.463 252.158 117.347 252.071 117.211L251.607 116.385ZM276.621 116.921C276.544 117.028 276.467 117.11 276.389 117.168C276.312 117.226 276.206 117.255 276.07 117.255C275.925 117.255 275.766 117.197 275.592 117.081C275.418 116.955 275.2 116.82 274.939 116.675C274.688 116.53 274.374 116.399 273.997 116.283C273.63 116.158 273.175 116.095 272.634 116.095C271.909 116.095 271.271 116.225 270.72 116.486C270.169 116.738 269.705 117.105 269.328 117.588C268.961 118.072 268.68 118.657 268.487 119.343C268.303 120.029 268.211 120.798 268.211 121.648C268.211 122.538 268.313 123.33 268.516 124.026C268.719 124.713 269.004 125.293 269.371 125.766C269.748 126.23 270.198 126.588 270.72 126.839C271.252 127.081 271.846 127.202 272.503 127.202C273.132 127.202 273.649 127.129 274.055 126.984C274.461 126.83 274.794 126.661 275.055 126.477C275.326 126.293 275.548 126.129 275.722 125.984C275.906 125.829 276.085 125.752 276.259 125.752C276.472 125.752 276.636 125.834 276.752 125.998L277.477 126.941C277.158 127.337 276.795 127.676 276.389 127.956C275.983 128.236 275.544 128.473 275.07 128.666C274.606 128.85 274.118 128.985 273.605 129.073C273.093 129.16 272.571 129.203 272.039 129.203C271.121 129.203 270.266 129.034 269.473 128.695C268.69 128.357 268.008 127.869 267.428 127.231C266.848 126.583 266.394 125.791 266.065 124.853C265.737 123.915 265.572 122.847 265.572 121.648C265.572 120.556 265.722 119.546 266.022 118.618C266.331 117.69 266.776 116.892 267.356 116.225C267.946 115.549 268.666 115.022 269.516 114.645C270.377 114.268 271.363 114.079 272.474 114.079C273.509 114.079 274.417 114.249 275.2 114.587C275.993 114.916 276.694 115.384 277.303 115.993L276.621 116.921ZM282.843 107.641V120.213H283.51C283.703 120.213 283.863 120.189 283.989 120.14C284.124 120.082 284.264 119.971 284.409 119.807L289.049 114.833C289.184 114.669 289.325 114.543 289.47 114.456C289.624 114.36 289.827 114.311 290.079 114.311H292.413L287.005 120.068C286.744 120.397 286.463 120.653 286.164 120.836C286.338 120.952 286.492 121.088 286.628 121.242C286.773 121.387 286.908 121.557 287.034 121.75L292.776 129H290.47C290.248 129 290.054 128.966 289.89 128.898C289.735 128.821 289.6 128.686 289.484 128.492L284.656 122.475C284.511 122.272 284.366 122.141 284.221 122.083C284.085 122.016 283.873 121.982 283.583 121.982H282.843V129H280.248V107.641H282.843ZM300.344 114.079C301.417 114.079 302.384 114.258 303.244 114.616C304.105 114.974 304.839 115.481 305.448 116.138C306.057 116.796 306.521 117.593 306.84 118.531C307.169 119.459 307.333 120.498 307.333 121.648C307.333 122.808 307.169 123.852 306.84 124.78C306.521 125.708 306.057 126.501 305.448 127.158C304.839 127.816 304.105 128.323 303.244 128.681C302.384 129.029 301.417 129.203 300.344 129.203C299.262 129.203 298.285 129.029 297.415 128.681C296.555 128.323 295.82 127.816 295.211 127.158C294.602 126.501 294.134 125.708 293.805 124.78C293.486 123.852 293.326 122.808 293.326 121.648C293.326 120.498 293.486 119.459 293.805 118.531C294.134 117.593 294.602 116.796 295.211 116.138C295.82 115.481 296.555 114.974 297.415 114.616C298.285 114.258 299.262 114.079 300.344 114.079ZM300.344 127.188C301.794 127.188 302.877 126.704 303.592 125.737C304.308 124.761 304.665 123.403 304.665 121.663C304.665 119.913 304.308 118.55 303.592 117.574C302.877 116.598 301.794 116.109 300.344 116.109C299.61 116.109 298.967 116.235 298.416 116.486C297.875 116.738 297.42 117.1 297.053 117.574C296.695 118.048 296.425 118.632 296.241 119.328C296.067 120.015 295.98 120.793 295.98 121.663C295.98 123.403 296.338 124.761 297.053 125.737C297.778 126.704 298.875 127.188 300.344 127.188ZM322.797 114.311L316.808 129H314.488L308.5 114.311H310.602C310.815 114.311 310.989 114.365 311.124 114.471C311.259 114.577 311.351 114.703 311.4 114.848L315.126 124.302C315.242 124.66 315.344 125.008 315.431 125.346C315.518 125.684 315.6 126.023 315.677 126.361C315.754 126.023 315.837 125.684 315.924 125.346C316.011 125.008 316.117 124.66 316.243 124.302L320.013 114.848C320.071 114.693 320.167 114.568 320.303 114.471C320.438 114.365 320.597 114.311 320.781 114.311H322.797ZM334.598 120.053C334.598 119.454 334.511 118.908 334.337 118.415C334.173 117.912 333.926 117.482 333.598 117.124C333.279 116.757 332.887 116.477 332.423 116.283C331.959 116.08 331.432 115.979 330.843 115.979C329.605 115.979 328.624 116.341 327.899 117.066C327.184 117.782 326.739 118.777 326.565 120.053H334.598ZM336.686 126.941C336.367 127.328 335.985 127.666 335.541 127.956C335.096 128.236 334.617 128.468 334.105 128.652C333.602 128.836 333.08 128.971 332.539 129.058C331.998 129.155 331.461 129.203 330.93 129.203C329.915 129.203 328.977 129.034 328.117 128.695C327.266 128.347 326.526 127.845 325.898 127.188C325.279 126.52 324.796 125.699 324.448 124.722C324.1 123.746 323.926 122.625 323.926 121.358C323.926 120.334 324.081 119.377 324.39 118.487C324.709 117.598 325.163 116.83 325.753 116.182C326.343 115.525 327.063 115.012 327.914 114.645C328.764 114.268 329.721 114.079 330.785 114.079C331.664 114.079 332.476 114.229 333.221 114.529C333.975 114.819 334.622 115.244 335.164 115.805C335.715 116.356 336.145 117.042 336.454 117.864C336.763 118.676 336.918 119.604 336.918 120.648C336.918 121.054 336.875 121.325 336.788 121.46C336.701 121.595 336.536 121.663 336.295 121.663H326.478C326.507 122.591 326.633 123.398 326.855 124.084C327.087 124.771 327.406 125.346 327.812 125.81C328.218 126.264 328.701 126.607 329.262 126.839C329.823 127.062 330.451 127.173 331.147 127.173C331.795 127.173 332.351 127.1 332.815 126.955C333.288 126.801 333.694 126.636 334.033 126.462C334.371 126.288 334.651 126.129 334.874 125.984C335.106 125.829 335.304 125.752 335.468 125.752C335.681 125.752 335.845 125.834 335.961 125.998L336.686 126.941ZM342.539 117.255C343.003 116.25 343.573 115.467 344.25 114.906C344.927 114.336 345.753 114.05 346.729 114.05C347.039 114.05 347.334 114.084 347.614 114.152C347.904 114.22 348.16 114.326 348.382 114.471L348.194 116.399C348.136 116.641 347.991 116.762 347.759 116.762C347.624 116.762 347.425 116.733 347.164 116.675C346.903 116.617 346.609 116.588 346.28 116.588C345.816 116.588 345.4 116.656 345.033 116.791C344.675 116.926 344.351 117.129 344.061 117.4C343.781 117.661 343.525 117.99 343.293 118.386C343.071 118.773 342.868 119.217 342.684 119.72V129H340.088V114.311H341.567C341.848 114.311 342.041 114.365 342.147 114.471C342.254 114.577 342.326 114.761 342.365 115.022L342.539 117.255ZM353.247 125.462C353.721 126.1 354.238 126.549 354.799 126.81C355.36 127.071 355.988 127.202 356.684 127.202C358.057 127.202 359.11 126.714 359.845 125.737C360.58 124.761 360.947 123.369 360.947 121.561C360.947 120.604 360.86 119.783 360.686 119.096C360.522 118.41 360.28 117.849 359.961 117.414C359.642 116.97 359.25 116.646 358.786 116.443C358.322 116.24 357.796 116.138 357.206 116.138C356.365 116.138 355.625 116.332 354.987 116.718C354.359 117.105 353.779 117.651 353.247 118.357V125.462ZM353.117 116.588C353.736 115.824 354.451 115.21 355.263 114.746C356.075 114.282 357.003 114.05 358.047 114.05C358.898 114.05 359.666 114.215 360.352 114.543C361.039 114.862 361.624 115.341 362.107 115.979C362.59 116.607 362.962 117.39 363.223 118.328C363.484 119.266 363.615 120.343 363.615 121.561C363.615 122.644 363.47 123.654 363.18 124.592C362.89 125.52 362.469 126.327 361.918 127.013C361.377 127.69 360.71 128.227 359.917 128.623C359.134 129.01 358.25 129.203 357.264 129.203C356.365 129.203 355.592 129.053 354.944 128.753C354.306 128.444 353.74 128.019 353.247 127.477V133.974H350.652V114.311H352.203C352.571 114.311 352.798 114.49 352.885 114.848L353.117 116.588ZM369.358 117.255C369.822 116.25 370.393 115.467 371.069 114.906C371.746 114.336 372.572 114.05 373.549 114.05C373.858 114.05 374.153 114.084 374.433 114.152C374.723 114.22 374.979 114.326 375.202 114.471L375.013 116.399C374.955 116.641 374.81 116.762 374.578 116.762C374.443 116.762 374.245 116.733 373.984 116.675C373.723 116.617 373.428 116.588 373.099 116.588C372.635 116.588 372.22 116.656 371.852 116.791C371.495 116.926 371.171 117.129 370.881 117.4C370.6 117.661 370.344 117.99 370.112 118.386C369.89 118.773 369.687 119.217 369.503 119.72V129H366.908V114.311H368.387C368.667 114.311 368.86 114.365 368.967 114.471C369.073 114.577 369.146 114.761 369.184 115.022L369.358 117.255ZM383.068 114.079C384.141 114.079 385.108 114.258 385.968 114.616C386.828 114.974 387.563 115.481 388.172 116.138C388.781 116.796 389.245 117.593 389.564 118.531C389.893 119.459 390.057 120.498 390.057 121.648C390.057 122.808 389.893 123.852 389.564 124.78C389.245 125.708 388.781 126.501 388.172 127.158C387.563 127.816 386.828 128.323 385.968 128.681C385.108 129.029 384.141 129.203 383.068 129.203C381.985 129.203 381.009 129.029 380.139 128.681C379.279 128.323 378.544 127.816 377.935 127.158C377.326 126.501 376.857 125.708 376.529 124.78C376.21 123.852 376.05 122.808 376.05 121.648C376.05 120.498 376.21 119.459 376.529 118.531C376.857 117.593 377.326 116.796 377.935 116.138C378.544 115.481 379.279 114.974 380.139 114.616C381.009 114.258 381.985 114.079 383.068 114.079ZM383.068 127.188C384.518 127.188 385.601 126.704 386.316 125.737C387.031 124.761 387.389 123.403 387.389 121.663C387.389 119.913 387.031 118.55 386.316 117.574C385.601 116.598 384.518 116.109 383.068 116.109C382.333 116.109 381.691 116.235 381.14 116.486C380.598 116.738 380.144 117.1 379.777 117.574C379.419 118.048 379.148 118.632 378.965 119.328C378.791 120.015 378.704 120.793 378.704 121.663C378.704 123.403 379.061 124.761 379.777 125.737C380.502 126.704 381.599 127.188 383.068 127.188ZM393.976 129V116.515L392.352 116.327C392.149 116.279 391.98 116.206 391.845 116.109C391.719 116.003 391.656 115.853 391.656 115.66V114.601H393.976V113.18C393.976 112.339 394.092 111.595 394.324 110.947C394.566 110.29 394.904 109.739 395.339 109.294C395.784 108.84 396.315 108.497 396.934 108.265C397.553 108.033 398.249 107.917 399.022 107.917C399.679 107.917 400.284 108.014 400.835 108.207L400.777 109.497C400.757 109.729 400.627 109.855 400.385 109.874C400.153 109.894 399.839 109.903 399.443 109.903C398.998 109.903 398.592 109.961 398.225 110.077C397.867 110.193 397.558 110.382 397.297 110.643C397.036 110.904 396.833 111.247 396.688 111.672C396.552 112.098 396.485 112.625 396.485 113.253V114.601H400.719V116.472H396.572V129H393.976ZM403.673 129.305C403.547 129.643 403.349 129.894 403.078 130.059C402.817 130.223 402.546 130.305 402.266 130.305H401.179L409.893 108.598C410.009 108.289 410.183 108.052 410.415 107.888C410.657 107.724 410.932 107.641 411.242 107.641H412.344L403.673 129.305ZM424.165 117.023C424.069 117.178 423.967 117.289 423.861 117.356C423.755 117.414 423.619 117.443 423.455 117.443C423.281 117.443 423.092 117.395 422.889 117.298C422.696 117.202 422.469 117.095 422.208 116.979C421.947 116.854 421.647 116.743 421.309 116.646C420.98 116.549 420.589 116.501 420.134 116.501C419.429 116.501 418.873 116.651 418.467 116.95C418.071 117.25 417.872 117.642 417.872 118.125C417.872 118.444 417.974 118.715 418.177 118.937C418.39 119.15 418.665 119.338 419.003 119.502C419.351 119.667 419.743 119.817 420.178 119.952C420.613 120.078 421.053 120.218 421.497 120.372C421.952 120.527 422.396 120.706 422.831 120.909C423.266 121.102 423.653 121.354 423.991 121.663C424.339 121.963 424.615 122.325 424.818 122.75C425.031 123.176 425.137 123.688 425.137 124.287C425.137 125.003 425.006 125.665 424.745 126.274C424.494 126.873 424.117 127.395 423.614 127.84C423.112 128.275 422.488 128.618 421.744 128.869C421.009 129.111 420.159 129.232 419.192 129.232C418.68 129.232 418.177 129.184 417.684 129.087C417.201 129 416.732 128.874 416.277 128.71C415.833 128.546 415.417 128.352 415.03 128.13C414.653 127.908 414.32 127.666 414.03 127.405L414.856 126.042C414.963 125.878 415.088 125.752 415.233 125.665C415.378 125.578 415.562 125.534 415.784 125.534C416.007 125.534 416.215 125.597 416.408 125.723C416.611 125.849 416.843 125.984 417.104 126.129C417.365 126.274 417.669 126.409 418.017 126.535C418.375 126.661 418.825 126.723 419.366 126.723C419.791 126.723 420.154 126.675 420.453 126.578C420.763 126.472 421.014 126.337 421.207 126.172C421.41 126.008 421.555 125.82 421.642 125.607C421.739 125.385 421.787 125.157 421.787 124.925C421.787 124.577 421.681 124.292 421.468 124.07C421.265 123.848 420.99 123.654 420.642 123.49C420.304 123.326 419.912 123.181 419.467 123.055C419.032 122.92 418.583 122.775 418.119 122.62C417.665 122.465 417.215 122.286 416.77 122.083C416.335 121.871 415.944 121.605 415.596 121.286C415.258 120.967 414.982 120.575 414.769 120.111C414.566 119.647 414.465 119.087 414.465 118.429C414.465 117.82 414.586 117.24 414.827 116.689C415.069 116.138 415.422 115.66 415.886 115.254C416.36 114.838 416.944 114.51 417.64 114.268C418.346 114.017 419.158 113.891 420.076 113.891C421.101 113.891 422.034 114.06 422.875 114.398C423.716 114.737 424.417 115.181 424.977 115.732L424.165 117.023ZM432.791 129.232C431.496 129.232 430.5 128.869 429.804 128.144C429.118 127.41 428.775 126.4 428.775 125.114V116.805H427.252C427.059 116.805 426.895 116.743 426.759 116.617C426.624 116.491 426.556 116.303 426.556 116.051V114.63L428.949 114.239L429.703 110.179C429.751 109.986 429.843 109.836 429.978 109.729C430.114 109.623 430.288 109.57 430.5 109.57H432.356V114.253H436.329V116.805H432.356V124.867C432.356 125.331 432.468 125.694 432.69 125.955C432.922 126.216 433.236 126.346 433.632 126.346C433.855 126.346 434.038 126.322 434.183 126.274C434.338 126.216 434.469 126.158 434.575 126.1C434.691 126.042 434.792 125.989 434.879 125.94C434.966 125.882 435.053 125.853 435.14 125.853C435.247 125.853 435.334 125.882 435.401 125.94C435.469 125.989 435.542 126.066 435.619 126.172L436.692 127.912C436.17 128.347 435.571 128.676 434.894 128.898C434.217 129.121 433.516 129.232 432.791 129.232ZM446.482 122.649C445.447 122.697 444.577 122.789 443.872 122.924C443.166 123.05 442.6 123.214 442.175 123.417C441.75 123.62 441.445 123.857 441.262 124.128C441.078 124.399 440.986 124.693 440.986 125.012C440.986 125.641 441.17 126.09 441.537 126.361C441.914 126.632 442.402 126.767 443.002 126.767C443.736 126.767 444.369 126.636 444.901 126.375C445.442 126.105 445.969 125.699 446.482 125.157V122.649ZM438.275 116.196C439.986 114.63 442.045 113.847 444.452 113.847C445.322 113.847 446.1 113.992 446.786 114.282C447.472 114.563 448.052 114.959 448.526 115.471C449 115.974 449.357 116.578 449.599 117.284C449.85 117.99 449.976 118.763 449.976 119.604V129H448.352C448.014 129 447.753 128.952 447.569 128.855C447.385 128.749 447.24 128.541 447.134 128.231L446.815 127.158C446.438 127.497 446.071 127.796 445.713 128.057C445.355 128.309 444.983 128.521 444.597 128.695C444.21 128.869 443.794 129 443.35 129.087C442.915 129.184 442.431 129.232 441.9 129.232C441.271 129.232 440.691 129.15 440.16 128.985C439.628 128.811 439.169 128.555 438.782 128.217C438.395 127.879 438.096 127.458 437.883 126.955C437.67 126.453 437.564 125.868 437.564 125.201C437.564 124.824 437.627 124.452 437.753 124.084C437.878 123.707 438.081 123.35 438.362 123.011C438.652 122.673 439.024 122.354 439.478 122.054C439.932 121.755 440.488 121.494 441.146 121.271C441.813 121.049 442.586 120.87 443.466 120.735C444.345 120.59 445.351 120.503 446.482 120.474V119.604C446.482 118.608 446.269 117.874 445.844 117.4C445.418 116.917 444.804 116.675 444.002 116.675C443.422 116.675 442.939 116.743 442.552 116.878C442.175 117.013 441.842 117.168 441.552 117.342C441.262 117.506 440.996 117.656 440.754 117.791C440.522 117.927 440.261 117.994 439.971 117.994C439.72 117.994 439.507 117.932 439.333 117.806C439.159 117.671 439.019 117.516 438.913 117.342L438.275 116.196ZM456.728 116.704C457.192 115.815 457.743 115.119 458.381 114.616C459.019 114.104 459.773 113.847 460.643 113.847C461.329 113.847 461.88 113.997 462.296 114.297L462.064 116.979C462.015 117.153 461.943 117.279 461.846 117.356C461.759 117.424 461.638 117.458 461.484 117.458C461.339 117.458 461.121 117.434 460.831 117.385C460.551 117.337 460.275 117.313 460.005 117.313C459.608 117.313 459.255 117.371 458.946 117.487C458.637 117.603 458.356 117.772 458.105 117.994C457.863 118.207 457.646 118.468 457.453 118.777C457.269 119.087 457.095 119.44 456.931 119.836V129H453.349V114.123H455.452C455.819 114.123 456.075 114.191 456.22 114.326C456.365 114.452 456.462 114.684 456.51 115.022L456.728 116.704ZM469.126 129.232C467.831 129.232 466.835 128.869 466.139 128.144C465.453 127.41 465.11 126.4 465.11 125.114V116.805H463.587C463.394 116.805 463.23 116.743 463.094 116.617C462.959 116.491 462.891 116.303 462.891 116.051V114.63L465.284 114.239L466.038 110.179C466.086 109.986 466.178 109.836 466.313 109.729C466.449 109.623 466.623 109.57 466.835 109.57H468.691V114.253H472.664V116.805H468.691V124.867C468.691 125.331 468.803 125.694 469.025 125.955C469.257 126.216 469.571 126.346 469.967 126.346C470.19 126.346 470.373 126.322 470.518 126.274C470.673 126.216 470.804 126.158 470.91 126.1C471.026 126.042 471.127 125.989 471.214 125.94C471.301 125.882 471.388 125.853 471.475 125.853C471.582 125.853 471.669 125.882 471.736 125.94C471.804 125.989 471.877 126.066 471.954 126.172L473.027 127.912C472.505 128.347 471.906 128.676 471.229 128.898C470.552 129.121 469.851 129.232 469.126 129.232ZM487.775 114.123V129H485.586C485.112 129 484.813 128.782 484.687 128.347L484.44 127.158C483.831 127.777 483.16 128.28 482.425 128.666C481.69 129.043 480.825 129.232 479.829 129.232C479.017 129.232 478.297 129.097 477.669 128.826C477.05 128.546 476.528 128.154 476.103 127.651C475.678 127.149 475.354 126.554 475.131 125.868C474.919 125.172 474.812 124.408 474.812 123.577V114.123H478.394V123.577C478.394 124.486 478.602 125.191 479.017 125.694C479.443 126.187 480.076 126.433 480.917 126.433C481.536 126.433 482.116 126.298 482.657 126.027C483.198 125.747 483.711 125.365 484.194 124.882V114.123H487.775ZM494.908 125.143C495.314 125.636 495.754 125.984 496.228 126.187C496.711 126.39 497.233 126.491 497.794 126.491C498.335 126.491 498.823 126.39 499.258 126.187C499.693 125.984 500.06 125.675 500.36 125.259C500.669 124.843 500.906 124.321 501.071 123.693C501.235 123.055 501.317 122.306 501.317 121.445C501.317 120.575 501.245 119.841 501.1 119.241C500.964 118.632 500.766 118.139 500.505 117.762C500.244 117.385 499.925 117.11 499.548 116.936C499.181 116.762 498.76 116.675 498.287 116.675C497.542 116.675 496.909 116.834 496.387 117.153C495.865 117.463 495.372 117.903 494.908 118.473V125.143ZM494.72 116.153C495.329 115.467 496.02 114.911 496.793 114.485C497.566 114.06 498.475 113.847 499.519 113.847C500.331 113.847 501.071 114.017 501.738 114.355C502.414 114.693 502.994 115.186 503.478 115.834C503.971 116.472 504.348 117.265 504.609 118.212C504.879 119.15 505.015 120.227 505.015 121.445C505.015 122.557 504.865 123.587 504.565 124.534C504.265 125.481 503.835 126.303 503.275 126.999C502.724 127.695 502.052 128.241 501.259 128.637C500.476 129.024 499.596 129.218 498.62 129.218C497.789 129.218 497.078 129.092 496.489 128.84C495.899 128.579 495.372 128.222 494.908 127.767V133.858H491.327V114.123H493.516C493.98 114.123 494.285 114.34 494.43 114.775L494.72 116.153ZM516.886 117.023C516.789 117.178 516.688 117.289 516.582 117.356C516.475 117.414 516.34 117.443 516.176 117.443C516.002 117.443 515.813 117.395 515.61 117.298C515.417 117.202 515.19 117.095 514.929 116.979C514.668 116.854 514.368 116.743 514.03 116.646C513.701 116.549 513.309 116.501 512.855 116.501C512.149 116.501 511.594 116.651 511.188 116.95C510.791 117.25 510.593 117.642 510.593 118.125C510.593 118.444 510.695 118.715 510.898 118.937C511.11 119.15 511.386 119.338 511.724 119.502C512.072 119.667 512.464 119.817 512.899 119.952C513.334 120.078 513.773 120.218 514.218 120.372C514.672 120.527 515.117 120.706 515.552 120.909C515.987 121.102 516.374 121.354 516.712 121.663C517.06 121.963 517.336 122.325 517.539 122.75C517.751 123.176 517.858 123.688 517.858 124.287C517.858 125.003 517.727 125.665 517.466 126.274C517.215 126.873 516.838 127.395 516.335 127.84C515.832 128.275 515.209 128.618 514.465 128.869C513.73 129.111 512.879 129.232 511.913 129.232C511.4 129.232 510.898 129.184 510.405 129.087C509.921 129 509.452 128.874 508.998 128.71C508.553 128.546 508.138 128.352 507.751 128.13C507.374 127.908 507.041 127.666 506.751 127.405L507.577 126.042C507.683 125.878 507.809 125.752 507.954 125.665C508.099 125.578 508.283 125.534 508.505 125.534C508.727 125.534 508.935 125.597 509.129 125.723C509.332 125.849 509.564 125.984 509.825 126.129C510.086 126.274 510.39 126.409 510.738 126.535C511.096 126.661 511.545 126.723 512.087 126.723C512.512 126.723 512.874 126.675 513.174 126.578C513.483 126.472 513.735 126.337 513.928 126.172C514.131 126.008 514.276 125.82 514.363 125.607C514.46 125.385 514.508 125.157 514.508 124.925C514.508 124.577 514.402 124.292 514.189 124.07C513.986 123.848 513.711 123.654 513.363 123.49C513.024 123.326 512.633 123.181 512.188 123.055C511.753 122.92 511.304 122.775 510.84 122.62C510.385 122.465 509.936 122.286 509.491 122.083C509.056 121.871 508.665 121.605 508.317 121.286C507.978 120.967 507.703 120.575 507.49 120.111C507.287 119.647 507.186 119.087 507.186 118.429C507.186 117.82 507.306 117.24 507.548 116.689C507.79 116.138 508.143 115.66 508.607 115.254C509.08 114.838 509.665 114.51 510.361 114.268C511.067 114.017 511.879 113.891 512.797 113.891C513.822 113.891 514.755 114.06 515.596 114.398C516.437 114.737 517.137 115.181 517.698 115.732L516.886 117.023ZM520.437 118.748H527.948V121.735H520.437V118.748Z" fill="#832DBA" fill-opacity="0.33"/>
<mask id="mask0_361_0" style="mask-type:alpha" maskUnits="userSpaceOnUse" x="14" y="14" width="214" height="214">
<path fill-rule="evenodd" clip-rule="evenodd" d="M219.051 15C164.632 15.0605 118.41 44.9929 85.422 75.5H22.5625L15 83.0625V128.438L17.2234 133.792L32.2122 148.781L32.2274 148.917L92.7274 209.417L92.8635 209.432L107.973 224.542L113.312 226.75H158.687L166.25 219.188V156.358C196.787 123.416 226.689 77.2091 226.629 22.5625L219.051 15ZM30.125 90.625H70.1004C57.8912 103.443 46.6431 117.143 36.4472 131.614L30.125 125.322V90.625ZM116.337 211.625L109.985 205.227C124.485 195.088 138.211 183.885 151.049 171.71V211.625H116.337ZM99.0496 194.322L47.307 142.61C62.311 120.875 126.607 35.4944 211.292 30.367C206.361 115.248 120.739 179.394 99.0496 194.322ZM60.375 226.75V211.625H30.125V181.375H15V226.75H60.375ZM162.438 110.787C165.78 105.78 166.996 99.6518 165.819 93.7491C164.642 87.8463 161.168 82.653 156.162 79.3115C151.155 75.97 145.027 74.7541 139.124 75.9312C133.221 77.1084 128.028 80.5821 124.686 85.5884C121.345 90.5926 120.128 96.7193 121.304 102.621C122.48 108.522 125.952 113.714 130.956 117.056C135.96 120.397 142.087 121.614 147.988 120.438C153.889 119.263 159.082 115.791 162.423 110.787H162.438Z" fill="#ECD93D" stroke="#ECD93D" stroke-width="2"/>
</mask>
<g mask="url(#mask0_361_0)">
<rect x="15" y="6" width="259" height="230"/>
</g>
</g>
<defs>
<clipPath id="clip0_361_0">
<rect width="624" height="242" fill="white"/>
</clipPath>
</defs>
</svg>
